<svg xmlns="http://www.w3.org/2000/svg" xmlns:xlink="http://www.w3.org/1999/xlink" viewBox="0 0 169.69 154.36"><defs><style>.cls-1,.cls-4{fill:none;}.cls-2{clip-path:url(#clip-path);}.cls-3{fill:#f2f2f2;}.cls-4{stroke:#231f20;stroke-miterlimit:10;}.cls-5{fill:#fff;}.cls-6{fill:#65cbe3;}</style><clipPath id="clip-path" transform="translate(0 0)"><rect class="cls-1" width="169.69" height="154.36"/></clipPath></defs><title>Zephyr_bot_logo</title><g id="Layer_2" data-name="Layer 2"><g id="Layer_1-2" data-name="Layer 1"><g id="Zephyr_bot_logo"><g class="cls-2"><g class="cls-2"><path class="cls-3" d="M163.76,103.37l-80.24,51,22.16-40.22h32.09A31.05,31.05,0,0,0,168.13,89c2.15,5.7.61,11.82-4.37,14.39" transform="translate(0 0)"/><path class="cls-3" d="M139.71,55.06v3.09a17.66,17.66,0,0,1-11.89,16.7l10.87-19.5a.85.85,0,0,1,1-.29" transform="translate(0 0)"/><path class="cls-4" d="M139.71,55.06v3.09a17.66,17.66,0,0,1-11.89,16.7l10.87-19.5A.85.85,0,0,1,139.71,55.06Z" transform="translate(0 0)"/><path class="cls-5" d="M147,2.17,114.57,31,102.93,41.35s0,0,0,0L100.4,43.6a0,0,0,0,0,0,0L64.18,75.83l-41.4,36.83,2.73.94A31.32,31.32,0,0,1,0,82.83V31.31A31.31,31.31,0,0,1,31.31,0H134.84A34.83,34.83,0,0,1,147,2.17" transform="translate(0 0)"/><path class="cls-3" d="M169.08,89a31.31,31.31,0,0,1-30.7,25.16H105.93l21.89-39.29a17.66,17.66,0,0,0,11.89-16.7V55.06a1.12,1.12,0,0,1,.53.35l25.65,28.4A16.22,16.22,0,0,1,169.08,89" transform="translate(0 0)"/><path class="cls-3" d="M169.69,34.85v48a31.21,31.21,0,0,1-.61,6.15,16.22,16.22,0,0,0-3.19-5.17l-25.65-28.4a1.12,1.12,0,0,0-.53-.35V48.68A17.68,17.68,0,0,0,122,31h-7.46L147,2.17a34.86,34.86,0,0,1,22.72,32.68" transform="translate(0 0)"/><path class="cls-3" d="M139.71,48.68v9.47a17.66,17.66,0,0,1-11.89,16.7l-21.89,39.29H31.31a30.83,30.83,0,0,1-5.8-.54l-2.73-.94,41.4-36.83,36.21-32.22h0l2.52-2.24h0L114.57,31H122a17.68,17.68,0,0,1,17.68,17.68" transform="translate(0 0)"/><path class="cls-6" d="M139.71,48.68v9.47a17.66,17.66,0,0,1-11.89,16.7,17.33,17.33,0,0,1-5.79,1H45.11A17.67,17.67,0,0,1,27.44,58.15V48.68A17.68,17.68,0,0,1,45.11,31H122a17.68,17.68,0,0,1,17.68,17.68" transform="translate(0 0)"/><path class="cls-5" d="M73.48,54.39a16,16,0,1,1-16-16,16,16,0,0,1,16,16" transform="translate(0 0)"/><path class="cls-5" d="M128.32,54.39a16,16,0,1,1-16-16,16,16,0,0,1,16,16" transform="translate(0 0)"/></g></g></g></g></g></svg>