<?xml version="1.0" standalone="no"?>
<!DOCTYPE svg PUBLIC "-//W3C//DTD SVG 20010904//EN"
 "http://www.w3.org/TR/2001/REC-SVG-20010904/DTD/svg10.dtd">
<svg version="1.0" xmlns="http://www.w3.org/2000/svg"
 width="16.000000pt" height="16.000000pt" viewBox="0 0 16.000000 16.000000"
 preserveAspectRatio="xMidYMid meet">
<metadata>
Created by potrace 1.11, written by Peter Selinger 2001-2013
</metadata>
<g transform="translate(0.000000,16.000000) scale(0.003125,-0.003125)"
fill="#000000" stroke="none">
<path d="M785 4398 c4 -51 9 -109 10 -128 2 -19 6 -69 9 -110 4 -41 9 -93 11
-115 2 -22 7 -80 10 -130 4 -49 8 -101 10 -115 2 -14 7 -61 10 -105 3 -44 8
-100 10 -125 2 -25 7 -76 10 -115 3 -38 8 -92 10 -120 3 -27 8 -77 10 -110 6
-72 13 -149 20 -230 7 -74 12 -135 20 -245 4 -47 8 -96 10 -110 2 -14 7 -63
10 -110 4 -47 8 -98 9 -115 2 -16 6 -68 10 -115 4 -47 9 -101 11 -120 2 -19 7
-73 10 -120 3 -47 8 -101 10 -120 2 -19 6 -62 9 -95 3 -33 8 -85 11 -115 3
-30 7 -89 10 -130 3 -41 7 -95 10 -120 2 -25 7 -76 10 -115 6 -81 15 -175 20
-225 2 -19 7 -76 10 -127 4 -50 8 -100 10 -110 2 -10 4 -33 4 -50 1 -27 6 -34
29 -39 15 -4 95 -24 177 -46 83 -22 157 -41 165 -43 8 -2 78 -20 155 -40 77
-20 147 -38 155 -40 8 -2 51 -13 95 -25 98 -26 416 -109 586 -152 l125 -32
125 33 c363 95 435 113 449 116 8 2 179 47 380 100 201 52 401 104 446 116 44
11 81 26 81 32 1 11 4 56 18 217 2 30 6 78 9 105 3 28 8 84 11 125 3 41 8 95
10 120 3 25 7 79 10 120 3 41 7 86 10 100 2 14 7 69 10 124 4 54 8 106 10 115
1 9 6 59 10 111 3 52 8 111 10 130 2 19 6 71 10 115 3 44 8 98 10 120 6 64 15
155 20 225 6 78 14 168 20 230 3 25 7 79 10 120 3 41 7 91 10 110 2 19 6 71
10 115 3 44 7 100 10 125 4 46 12 131 20 230 11 132 17 197 20 230 2 19 7 73
10 120 4 47 8 101 10 120 2 19 6 76 10 125 3 50 8 101 10 115 2 14 6 57 10 95
3 39 8 98 11 133 l6 62 -1797 0 -1797 0 7 -92z m2901 -751 c-7 -95 -16 -207
-21 -257 -2 -19 -4 -50 -4 -67 l-1 -33 -866 0 -867 0 7 -87 c4 -49 9 -115 11
-148 11 -143 16 -199 20 -205 2 -3 373 -5 824 -5 540 0 821 -3 822 -10 3 -22
-9 -219 -15 -253 -2 -9 -7 -64 -11 -122 -4 -58 -8 -112 -10 -120 -2 -8 -6 -53
-10 -100 -3 -47 -8 -101 -10 -120 -2 -19 -6 -73 -10 -120 -4 -47 -8 -103 -10
-125 -6 -57 -15 -168 -20 -233 -12 -146 -17 -197 -20 -200 -2 -2 -18 -7 -37
-12 -18 -5 -67 -17 -108 -28 -41 -11 -156 -41 -255 -67 -99 -25 -257 -66 -351
-91 l-171 -44 -74 19 c-41 11 -146 38 -234 61 -88 23 -194 50 -235 61 -41 11
-82 22 -90 24 -40 8 -283 74 -285 77 -5 5 -14 88 -20 173 -3 44 -7 98 -10 120
-2 22 -7 76 -10 120 -3 44 -8 91 -10 105 -2 14 -7 69 -10 123 l-7 97 230 0
230 0 6 -42 c3 -24 8 -63 11 -88 3 -25 7 -63 10 -85 3 -22 8 -67 11 -100 3
-33 9 -63 13 -67 6 -7 191 -52 386 -94 39 -8 86 -12 105 -9 66 12 464 96 468
99 4 5 9 35 16 106 4 36 9 81 12 101 2 20 7 55 9 79 2 24 7 59 10 79 2 20 7
56 10 81 3 25 7 66 11 93 l5 47 -143 1 c-79 0 -428 2 -775 3 -348 1 -635 5
-638 7 -5 6 -10 43 -19 144 -3 33 -8 85 -11 115 -2 30 -7 87 -10 125 -11 142
-16 205 -19 222 -2 10 -7 63 -11 118 -4 55 -8 114 -10 130 -2 17 -7 68 -10
115 -3 47 -7 96 -10 110 -2 14 -7 70 -10 125 -4 54 -9 103 -11 107 -3 4 -3 12
0 17 3 4 504 9 1122 9 l1116 0 -6 -81z"/>
</g>
</svg>
